# xmcd
# 
# Track frame offsets:
#     150
#     13719
#     26079
#     41713
#     58372
#     73895
#     93529
#     113165
#     133876
#     160533
#     176352
# 
# Disc length: 2575
# 
# Revision: 15
# Processed by: cddbd v1.5.2PL0 Copyright (c) Steve Scherf et al.
# Submitted via: fre:ac v1.0.17
# 
DISCID=9a0a0d0b
DTITLE=The Black Keys - Magic Potion
DYEAR=2006
DGENRE=Rock
TTITLE0=Just Got To Be
TTITLE1=Your Touch
TTITLE2=You're The One
TTITLE3=Just A Little Heat
TTITLE4=Give Your Heart Away
TTITLE5=Strange Desire
TTITLE6=Modern Times
TTITLE7=The Flame
TTITLE8=Goodbye Babylon
TTITLE9=Black Door
TTITLE10=Elevator
EXTD=All songs written by the Black Keys.\nDan Auerbach: guitar, vocals\nPatrick Carney: drums\nProd UPC 075597996722. YEAR: 2006
EXTT0=(The Black Keys)
EXTT1=(The Black Keys)
EXTT2=(The Black Keys)
EXTT3=(The Black Keys)
EXTT4=(The Black Keys)
EXTT5=(The Black Keys)
EXTT6=(The Black Keys)
EXTT7=(The Black Keys)
EXTT8=(The Black Keys)
EXTT9=(The Black Keys)
EXTT10=(The Black Keys)
PLAYORDER=
